<svg width="41" height="30" viewBox="0 0 41 30" fill="none" xmlns="http://www.w3.org/2000/svg">
<g clip-path="url(#clip0)">
<path d="M16.0946 14.8049C16.0946 19.9795 20.6278 24.1783 26.2283 24.2055V29.605C20.832 29.5887 16.0626 27.1129 13.1683 23.3295C10.2633 27.1274 5.47258 29.605 0.0550455 29.605H0V24.2055H0.0550455C5.68034 24.2055 10.242 19.9958 10.242 14.8049C10.242 9.61398 5.68034 5.40429 0.0550455 5.40429H0V0.00479126H0.0550455C5.47436 0.00479126 10.2651 2.48236 13.1683 6.28033C16.0626 2.49505 20.832 0.0211149 26.2283 0.00479126V5.40429C20.6261 5.4315 16.0946 9.63212 16.0946 14.8049Z" fill="#2683FF"/>
<path d="M41.0001 14.4773C41.0001 16.0443 40.7674 17.5552 40.3342 18.9771C40.3306 18.988 40.3271 19.0007 40.3235 19.0116C39.9684 20.1724 39.4783 21.2733 38.8728 22.2927C37.2428 25.0495 34.7746 27.2351 31.827 28.4739C30.4651 29.047 29.0001 29.4207 27.4695 29.5549C27.3079 29.5694 27.1446 29.5821 26.9777 29.5893V24.2642H27.1978C31.7098 23.214 35.0463 19.4451 35.0463 14.9561C35.0463 10.409 31.6228 6.60201 27.0221 5.60808V0C27.1854 0.0217649 27.3488 0.0471572 27.5139 0.0743633C32.3774 0.865153 36.5041 3.64199 38.8728 7.46353C39.9631 9.22105 40.6804 11.1998 40.9273 13.3092C40.9574 13.5486 40.9787 13.7899 40.9947 14.0329C40.9983 14.178 41.0001 14.3285 41.0001 14.4773Z" fill="#2683FF"/>
<path d="M28.0981 22.3217C28.0981 20.6077 28.0981 18.8955 28.0981 17.1816C28.0981 14.47 28.0981 11.7585 28.0981 9.04694C28.0981 8.42301 28.0981 7.8009 28.0981 7.17697C28.0981 6.47687 27.0327 6.47506 27.0327 7.17697C27.0327 8.89096 27.0327 10.6031 27.0327 12.3171C27.0327 15.0286 27.0327 17.7402 27.0327 20.4517C27.0327 21.0757 27.0327 21.6978 27.0327 22.3217C27.0327 23.0218 28.0981 23.0218 28.0981 22.3217Z" fill="#2683FF"/>
</g>
<defs>
<clipPath id="clip0">
<rect width="41" height="29.6111" fill="white"/>
</clipPath>
</defs>
</svg>
